<svg width="46" height="46" viewBox="0 0 46 46" fill="none" xmlns="http://www.w3.org/2000/svg">
<path fill-rule="evenodd" clip-rule="evenodd" d="M39.7517 13.1483L42.1667 29.1333C43.1442 36.1292 38.3333 42.4925 31.8167 42.55H14.0683C7.66666 42.55 2.79833 36.1292 3.83333 29.1333L6.24833 13.1483C6.82165 7.86288 11.1716 3.78987 16.4833 3.565H29.5167C34.8284 3.78987 39.1783 7.86288 39.7517 13.1483ZM31.8742 39.6175C33.9322 39.5878 35.8733 38.6558 37.1833 37.0683C38.9403 34.9875 39.7032 32.2442 39.2725 29.555L36.915 13.57C36.5784 9.66822 33.4265 6.60622 29.5167 6.3825H16.4833C12.5734 6.60622 9.42163 9.66822 9.085 13.57L6.7275 29.555C6.29684 32.2442 7.05965 34.9875 8.81666 37.0683C10.1267 38.6558 12.0678 39.5878 14.1258 39.6175H31.8742Z" fill="#E9EBE8"/>
<path d="M29.0375 13.5317C28.2436 13.5317 27.6 14.1753 27.6 14.9692C27.6 17.5097 25.5405 19.5692 23 19.5692C20.4595 19.5692 18.4 17.5097 18.4 14.9692C18.4 14.1753 17.7564 13.5317 16.9625 13.5317C16.1686 13.5317 15.525 14.1753 15.525 14.9692C15.525 17.6397 16.9497 20.1074 19.2625 21.4427C21.5753 22.778 24.4247 22.778 26.7375 21.4427C29.0503 20.1074 30.475 17.6397 30.475 14.9692C30.4647 14.1796 29.8271 13.542 29.0375 13.5317Z" fill="#E9EBE8"/>
</svg>
