<svg width="46" height="46" viewBox="0 0 46 46" fill="none" xmlns="http://www.w3.org/2000/svg">
<path fill-rule="evenodd" clip-rule="evenodd" d="M35.4583 8.47168H10.5417C7.22893 8.62705 4.66167 11.4254 4.79165 14.7392V25.2042C4.66167 28.518 7.22893 31.3163 10.5417 31.4717H17.71C17.5136 32.6946 17.2187 33.8996 16.8283 35.075L16.1767 36.8767C15.9807 37.3578 16.0231 37.9031 16.2909 38.3482C16.5587 38.7933 17.0207 39.0861 17.5375 39.1383H28.4625C28.9793 39.0861 29.4413 38.7933 29.7091 38.3482C29.9769 37.9031 30.0192 37.3578 29.8233 36.8767L29.1717 35.075C28.7812 33.8996 28.4864 32.6946 28.29 31.4717H35.4583C38.771 31.3163 41.3383 28.518 41.2083 25.2042V14.7392C41.3383 11.4254 38.771 8.62705 35.4583 8.47168ZM19.4542 36.2633V36.0333C19.8697 34.8599 20.1902 33.6549 20.4125 32.43H25.4342C25.6655 33.6528 25.9858 34.8572 26.3925 36.0333V36.2633H19.4542ZM35.4583 28.5967C37.179 28.4344 38.4555 26.9282 38.3333 25.2042V14.7392C38.4555 13.0152 37.179 11.5089 35.4583 11.3467H10.5417C8.82096 11.5089 7.54449 13.0152 7.66665 14.7392V25.2042C7.54449 26.9282 8.82096 28.4344 10.5417 28.5967H35.4583Z" fill="#E9EBE8"/>
</svg>
