<svg width="30" height="30" viewBox="0 0 30 30" fill="none" xmlns="http://www.w3.org/2000/svg">
<path fill-rule="evenodd" clip-rule="evenodd" d="M5.0772 9.58678C6.85995 5.30599 11.037 2.51267 15.6742 2.50028C20.6719 2.47397 25.1158 5.67519 26.6737 10.424C28.2316 15.1728 26.5476 20.3843 22.5055 23.3236C18.4634 26.2629 12.9866 26.2586 8.94917 23.3128L5.34917 26.9128C4.98315 27.2784 4.3902 27.2784 4.02418 26.9128C3.65861 26.5468 3.65861 25.9538 4.02418 25.5878L7.51168 22.1003C4.25405 18.8001 3.29445 13.8676 5.0772 9.58678ZM6.74864 17.7115C8.24548 21.3185 11.7688 23.6678 15.6742 23.6628V23.6128C20.9745 23.606 25.2773 19.3255 25.3117 14.0253C25.3167 10.12 22.9674 6.59659 19.3603 5.09975C15.7533 3.6029 11.5996 4.42772 8.8381 7.18921C6.07661 9.9507 5.2518 14.1044 6.74864 17.7115Z" fill="#3F3B38"/>
</svg>
