<svg width="46" height="46" viewBox="0 0 46 46" fill="none" xmlns="http://www.w3.org/2000/svg">
<path d="M23.1917 39.8667C22.2333 39.8667 21.0833 39.4833 20.3167 38.7167C7.85834 27.7917 7.66668 27.6 7.66668 27.4083L7.47501 27.2167C5.17501 24.9167 3.83334 21.6583 3.83334 18.4V18.0167C4.02501 11.1167 9.58334 5.75 16.4833 5.75C18.5917 5.75 21.4667 6.9 23.1917 9.2C24.9167 6.9 27.9833 5.75 30.0917 5.75C36.9917 5.75 42.3583 11.1167 42.7417 18.0167V18.4C42.7417 21.85 41.4 24.9167 39.1 27.4083L38.9083 27.6C38.7167 27.7917 37.1833 29.1333 26.2583 38.9083C25.3 39.4833 24.3417 39.8667 23.1917 39.8667ZM10.5417 26.8333C11.3083 27.6 15.1417 30.2833 22.2333 36.4167C22.8083 36.9917 23.575 36.9917 24.15 36.4167C31.4333 29.9 35.65 26.2583 36.6083 25.4917L36.8 25.3C38.7167 23.3833 39.675 20.8917 39.675 18.4V18.0167C39.4833 12.65 35.2667 8.625 29.9 8.625C28.5583 8.625 25.875 9.58333 24.9167 11.6917C24.5333 12.4583 23.7667 12.8417 23 12.8417C22.2333 12.8417 21.4667 12.4583 21.0833 11.6917C20.125 9.775 17.6333 8.625 16.1 8.625C10.925 8.625 6.51668 12.8417 6.32501 18.0167V18.5917C6.32501 21.0833 7.47501 23.575 9.20001 25.3L10.5417 26.8333Z" fill="#E9EBE8"/>
</svg>
